<svg width="16" height="17" viewBox="0 0 16 17" fill="none" xmlns="http://www.w3.org/2000/svg">
<g clip-path="url(#clip0_13_19)">
<path d="M8 12.5C10.2091 12.5 12 10.7091 12 8.5C12 6.29086 10.2091 4.5 8 4.5C5.79086 4.5 4 6.29086 4 8.5C4 10.7091 5.79086 12.5 8 12.5Z" fill="#6B6B6B"/>
<path d="M8 1.5V3M8 14V15.5M15 8.5H13.5M2.5 8.5H1M12.7175 3.7825L11.6569 4.84315M4.34315 12.1569L3.2825 13.2175M12.7175 13.2175L11.6569 12.1569M4.34315 4.84315L3.2825 3.7825" stroke="#6B6B6B" stroke-width="1.5" stroke-linecap="round"/>
</g>
<defs>
<clipPath id="clip0_13_19">
<rect width="16" height="16" fill="white" transform="translate(0 0.5)"/>
</clipPath>
</defs>
</svg>
